<svg width="116" height="118" viewBox="0 0 116 118" fill="none" xmlns="http://www.w3.org/2000/svg">
<path d="M55.9436 64.5237C52.8821 65.4207 49.8206 66.3292 46.7592 67.2147C46.3895 67.3182 46.0198 67.4102 45.6386 67.4562C43.4089 67.6747 41.5836 68.4797 39.7467 69.9287C36.1422 72.7576 34.8252 76.4836 34.1783 80.727C33.5313 84.959 31.2092 88.2479 27.651 90.7089C28.3904 89.6049 29.1875 88.5469 29.8576 87.4084C31.6598 84.384 32.3183 81.049 32.8266 77.5991C33.1154 75.6671 34.1436 73.8386 34.9061 71.9871C35.6917 70.0897 36.5928 68.2382 37.3553 66.3292C38.3141 63.9602 40.2665 62.6953 42.45 61.7753C46.5512 60.0388 50.6986 58.4518 54.823 56.7843C58.0115 55.4848 63.0947 56.0138 64.9085 58.2563C67.2999 61.2118 67.4732 63.1552 64.5041 65.6047C60.9343 68.5372 57.7227 71.9181 54.4417 75.1841C53.3211 76.2996 52.4431 77.6566 51.4496 78.8986C51.5073 79.048 51.5651 79.1975 51.6229 79.3585C52.5355 79.1975 53.4482 79.071 54.3493 78.8526C56.9487 78.2201 59.0281 78.8411 60.195 80.6465C61.1538 82.1185 60.7264 83.51 59.005 83.7745C57.249 84.0505 55.4352 83.9585 53.6446 84.039C52.0041 84.108 50.3521 84.177 48.7116 84.3035C48.3534 84.3265 47.926 84.4875 47.6834 84.7405C43.2934 88.9954 38.9149 93.2734 34.5595 97.5513C34.3516 97.7583 34.2707 98.0918 34.2245 98.1723C36.7661 98.1723 39.4001 98.5403 41.8724 98.0803C45.523 97.4018 48.9657 97.9308 52.4084 98.8853C55.3313 99.7018 55.4468 99.5983 56.8909 96.8958C58.1039 94.6304 59.5711 92.4914 61.0383 90.3754C63.0254 87.5119 64.2269 84.4875 64.2153 80.9225C64.2153 78.8296 64.481 76.5986 65.2435 74.6666C66.3872 71.7571 68.0624 69.0432 69.5411 66.2602C70.9967 63.5117 72.8567 60.9128 73.8734 58.0263C75.3868 53.7484 78.2172 51.3679 82.4455 50.1604C84.6058 49.5394 86.6969 49.1484 88.8688 49.8499C90.8212 50.4824 92.2537 51.9084 93.0278 53.6794C94.0213 55.9563 94.83 58.3713 95.2459 60.8093C95.7311 63.7417 94.6682 66.4902 92.8891 68.8247C91.2371 70.9982 89.1576 72.8611 87.5518 75.0691C86.2463 76.8631 85.403 78.979 84.2824 80.911C83.7509 81.831 83.1733 82.7625 82.4339 83.51C80.9552 84.9935 79.2685 84.4415 78.7948 82.3945C78.1017 79.393 79.0721 76.6791 80.5508 74.2066C82.2375 71.3891 84.2708 68.7902 86.1077 66.0532C87.7713 63.5692 87.9215 60.8323 87.1705 58.0263C86.951 57.1983 86.385 57.0258 85.4376 57.0833C83.1733 57.2213 81.5906 58.2333 80.5277 60.1423C78.3212 64.1097 74.8322 67.0192 71.9787 70.4462C70.6617 72.0331 69.3447 73.6776 68.3974 75.4946C67.866 76.5181 67.6234 78.1281 68.0624 79.1171C70.0379 83.625 69.3909 87.8684 67.4963 92.1579C66.9417 93.3999 66.5836 94.7569 66.3295 96.0908C66.2024 96.7348 66.5259 97.4593 66.6183 98.0343C69.2061 95.9873 71.5282 94.0209 74.0005 92.2499C75.0864 91.4794 76.415 90.9159 77.7204 90.6169C78.4829 90.4444 79.4071 90.9619 80.262 91.1689C79.9848 92.0659 79.9616 93.2044 79.384 93.8024C76.6229 96.6543 73.677 99.3338 70.8466 102.117C69.6451 103.301 68.2588 103.899 66.676 103.37C64.8045 102.749 63.8456 101.151 63.9034 99.2993C63.9611 97.2408 64.3308 95.1708 64.8392 93.1699C65.4283 90.8699 66.3064 88.6389 67.0919 86.2815C66.7338 86.3045 66.5721 86.27 66.5374 86.3275C64.5157 89.6279 62.4708 92.9169 60.4953 96.2518C59.8022 97.4248 59.3401 98.7473 58.6469 99.9318C58.3119 100.507 57.5032 101.415 57.2144 101.312C55.5854 100.737 54.5457 102.381 53.0901 102.197C51.6229 102.013 50.1326 101.921 48.6769 101.668C44.1367 100.886 39.6312 101.875 35.1025 101.921C33.7739 101.933 32.4685 102.956 31.1168 103.382C30.0193 103.715 28.7947 103.934 28.0322 102.692C27.2351 101.392 27.6163 100.024 28.4481 99.0233C30.0886 97.0568 31.9486 95.2743 33.7393 93.4229C36.1422 90.9389 38.5452 88.4664 40.9366 85.971C41.1792 85.718 41.2947 85.327 41.5258 84.913C40.2088 84.913 39.0189 85.005 37.8636 84.867C37.4708 84.821 36.974 84.223 36.8701 83.786C36.8123 83.533 37.3668 82.9695 37.7596 82.8085C38.8109 82.36 39.92 81.8195 41.029 81.7505C42.7157 81.6585 43.3511 80.842 43.7901 79.3585C44.7952 75.9316 47.4292 73.6086 49.8206 71.1707C51.9232 69.0317 54.1298 66.9962 56.2902 64.9147C56.1515 64.7997 56.0475 64.6617 55.9436 64.5237Z" fill="white"/>
<path d="M7.78015 86.7184C7.05233 87.0749 6.48625 87.3624 5.49271 87.8569C5.88551 87.1209 6.02414 86.7299 6.26675 86.4424C7.82636 84.614 8.90077 82.7625 8.56574 80.129C8.11518 76.5295 9.82498 73.3326 11.1998 70.1241C12.4474 67.2262 13.8684 64.3857 14.9197 61.4072C15.6938 59.2108 15.8902 56.8188 16.5371 54.5648C17.831 50.0569 20.4766 46.3654 23.9308 43.2375C25.5251 41.7885 27.2118 40.4315 28.9332 39.132C31.1051 37.4875 35.0445 38.0625 36.6157 40.3165C37.4937 41.57 37.6208 43.088 36.9276 44.491C36.0034 46.3539 34.7673 48.0674 34.0164 49.9879C32.8495 52.9778 31.9022 56.0598 31.0011 59.1418C29.8112 63.2242 27.2349 66.3292 24.2197 69.1581C21.9207 71.3201 19.5177 73.3671 17.2649 75.5866C16.0981 76.725 15.0121 78.013 14.1804 79.4045C13.6605 80.2785 13.6374 81.463 13.4756 82.521C13.233 84.0965 13.0482 85.6719 12.8056 87.5464C13.4063 86.4999 13.9493 85.6374 14.3999 84.7404C15.9133 81.716 17.0108 78.404 18.9863 75.7131C20.9965 72.9876 23.8153 70.8486 26.3338 68.5027C27.2349 67.6632 28.6443 67.8472 29.0949 69.0431C29.5917 70.3541 29.7881 71.8606 29.7419 73.2751C29.6494 76.2651 29.5686 79.301 29.0025 82.2335C28.5635 84.4529 27.5468 86.6034 26.4724 88.6274C25.3172 90.8009 23.7922 92.7789 22.66 95.0673C23.7113 94.3198 24.7742 93.5723 25.8255 92.8248C25.9526 92.8938 26.0796 92.9743 26.2067 93.0433C24.0348 96.4473 21.9207 99.8858 19.6448 103.221C18.7783 104.486 17.5769 105.636 15.74 104.934C14.3883 104.405 13.6027 102.588 13.8107 100.633C14.1457 97.6548 15.5551 95.1133 17.3342 92.8133C20.3611 88.8919 22.2441 84.6139 22.3712 79.5885C22.4174 77.622 22.972 75.6786 23.3185 73.6086C23.0066 73.8616 22.4868 74.1261 22.1864 74.5286C20.4881 76.8055 18.8476 79.1055 17.1725 81.4055C17.0801 81.5435 16.953 81.647 16.8606 81.7965C13.6605 86.8794 10.3564 91.8934 7.3296 97.0798C5.96638 99.4143 5.15769 102.082 4.1295 104.601C3.7367 105.555 3.08975 106.487 2.09622 105.923C1.35684 105.509 0.582813 104.348 0.594366 103.531C0.675235 99.7248 2.05001 96.3093 4.22192 93.1813C5.43495 91.4334 6.4747 89.5819 7.5722 87.7534C7.72239 87.5119 7.69928 87.1669 7.78015 86.7184ZM17.1956 69.2731C17.3458 69.3766 17.4844 69.4801 17.6346 69.5836C19.3098 67.6172 21.1235 65.7542 22.6023 63.6612C23.5265 62.3617 24.2543 60.7748 24.5316 59.2223C25.3865 54.4958 26.7728 50.0339 29.6725 46.1354C29.9614 45.7444 30.1346 45.2499 30.5737 44.4105C29.8112 44.951 29.4761 45.2269 29.1065 45.4454C25.2247 47.6879 23.0297 51.1839 21.8976 55.3813C20.6961 59.8203 20.1647 64.4777 17.4267 68.3992C17.2649 68.6177 17.2649 68.9741 17.1956 69.2731Z" fill="white"/>
<path d="M60.0792 53.7253C55.7931 53.1848 51.484 52.7363 47.221 52.0578C44.2058 51.5748 41.9645 49.6198 41.4216 46.7334C40.8093 43.5134 42.2302 40.765 45.0953 38.856C46.8629 37.683 48.5958 36.464 50.2132 35.107C52.2118 33.4281 54.5339 33.1061 56.9831 33.1061C59.9752 33.1061 63.0944 32.5656 65.9249 33.2441C69.1943 34.026 72.5677 35.268 74.8204 38.1315C76.4494 40.19 75.6869 42.4439 74.5663 44.2839C71.5279 49.3323 66.6989 51.9543 61.1074 53.3458C60.7955 53.4263 60.4489 53.3573 60.1138 53.3573C60.1023 53.4838 60.0907 53.5988 60.0792 53.7253ZM47.7409 40.397C46.8975 41.4549 45.8347 42.3634 45.361 43.5134C44.8643 44.7094 46.3315 46.6759 48.0875 46.8254C52.2811 47.1934 56.5441 47.5844 60.7146 47.2394C64.0649 46.6184 66.7682 45.1004 67.7502 44.3874C69.7604 43.2259 69.564 41.7769 67.5769 40.535C67.0224 40.19 66.4563 39.868 65.8902 39.523C63.649 41.6619 60.8879 42.5474 58.0228 43.2029C54.2797 44.0539 50.8139 43.8009 47.7409 40.397ZM63.0598 38.0165C62.5977 37.7865 62.3782 37.5795 62.1471 37.5565C59.6402 37.384 57.1332 37.1425 54.6263 37.131C53.6905 37.1195 52.697 37.545 51.8305 37.9705C51.3222 38.2235 51.0103 38.879 50.606 39.3505C51.0796 39.6495 51.5186 40.098 52.0385 40.2245C55.9318 41.202 59.5362 40.581 63.0598 38.0165Z" fill="white"/>
<path d="M99.1274 76.3801C99.7975 76.2306 100.456 76.0351 101.138 75.9546C102.917 75.7476 104.707 75.4026 106.475 75.4716C108.589 75.5521 109.536 77.5185 108.185 79.094C105.297 82.452 102.27 85.6949 99.1621 88.8459C97.3945 90.6399 95.3728 92.1579 93.4666 93.8023C93.3511 93.6873 93.2356 93.5838 93.1316 93.4688C94.0558 92.5603 95.0031 91.6749 95.8927 90.7434C98.0184 88.5239 100.225 86.3619 102.177 83.9815C103.09 82.8775 103.494 81.348 104.28 79.6575C101.727 80.1175 99.6935 80.382 97.7065 80.865C96.3317 81.1985 95.2342 80.589 94.7143 79.669C94.2291 78.8065 94.0096 77.2425 94.4948 76.5181C95.5577 74.9081 97.0249 73.5166 98.5036 72.2401C100.907 70.1816 103.471 68.2957 105.955 66.3292C106.244 66.0992 106.452 65.7772 106.949 65.2022C104.95 64.9607 103.229 64.6157 101.496 64.5582C99.5433 64.5007 97.7758 63.7072 97.1866 62.0857C96.505 60.2113 97.2328 58.5438 98.3996 57.1063C100.329 54.7143 102.293 52.3453 104.338 50.0454C106.348 47.8029 108.485 45.6639 111.385 44.5829C112.066 44.3299 113.106 44.284 113.661 44.6404C114.077 44.9164 114.054 45.9744 114.088 46.6874C114.181 48.5734 112.887 49.8154 111.708 50.9654C110.022 52.6098 109.074 54.5993 108.289 56.7268C108.115 57.1983 107.711 57.5893 107.191 58.3138C107.988 58.3138 108.485 58.2793 108.97 58.3253C110.588 58.4748 112.309 58.3483 113.788 58.8888C115.613 59.5558 115.948 61.2577 114.55 62.5802C111.974 65.0067 109.201 67.2262 106.498 69.5261C103.968 71.6766 101.415 73.8156 98.8733 75.9546C98.9542 76.0926 99.0466 76.2421 99.1274 76.3801Z" fill="white"/>
<path d="M11.1996 115.618C13.7412 114.824 16.2943 114.031 18.8359 113.226C22.6021 112.03 26.3336 110.742 30.1229 109.638C35.8184 107.97 41.6987 107.568 47.5906 107.28C49.8203 107.165 52.0384 106.51 54.245 106.567C57.214 106.636 60.1831 107.154 63.1521 107.464C63.9724 107.556 64.7926 107.602 65.6128 107.66C67.7732 107.809 68.8707 108.879 68.9054 110.914C68.94 112.605 67.4613 114.077 65.763 114.468C62.8402 115.158 60.1369 113.996 57.3295 113.766C54.4529 113.525 51.5416 113.663 48.6419 113.571C45.4187 113.467 42.1955 113.249 38.9838 113.18C37.2972 113.145 35.5989 113.318 33.9122 113.364C29.1872 113.49 24.4968 113.594 19.8641 114.974C17.1377 115.79 14.134 115.675 11.2573 115.974C11.2458 115.848 11.2227 115.733 11.1996 115.618Z" fill="white"/>
<path d="M79.788 106.889C79.118 104.555 80.2039 102.818 82.8842 102.519C86.4077 102.117 90.9364 103.336 92.7848 107.05C93.8939 109.27 93.2816 112.283 91.4794 114.387C88.0598 118.401 81.8444 118.918 77.4544 116.71C75.0861 115.514 74.4045 113.295 75.5713 110.88C76.7728 108.407 77.6739 107.545 79.788 106.889ZM80.2963 107.614C79.7534 108.419 78.9447 109.27 78.5981 110.27C78.3208 111.052 78.2746 112.513 78.7252 112.835C80.7238 114.284 84.2243 113.755 85.8416 111.949C86.3038 111.432 86.8698 110.535 86.7081 110.029C86.5348 109.477 85.6221 109.017 84.9405 108.798C83.4618 108.315 81.9253 108.016 80.2963 107.614Z" fill="white"/>
<path d="M58.7621 23.5498C59.2473 22.3538 59.6516 21.1118 60.2524 19.9618C61.6849 17.2133 62.3896 14.5569 61.2344 11.3944C59.5708 6.86347 62.3319 1.84954 67.0107 0.182059C68.4433 -0.323934 69.2057 0.239559 68.94 1.68854C68.8129 2.37853 68.709 3.20652 68.27 3.68952C66.306 5.85149 66.1789 8.40445 66.514 11.0609C66.9299 14.3154 65.867 17.0178 63.6373 19.3638C62.1932 20.8818 60.8069 22.4688 59.3975 24.0328L58.7621 23.5498Z" fill="white"/>
<path d="M68.2009 23.4348C69.8067 21.1233 71.5049 18.8808 72.9837 16.4889C74.0928 14.6949 74.913 12.7399 75.8372 10.8424C76.6575 9.14045 77.986 8.42746 79.1875 9.08295C80.5276 9.81894 81.4518 12.7514 80.5854 13.8439C77.5355 17.6963 74.1159 21.1463 69.7374 23.5268C69.541 23.6303 69.3446 23.7338 69.1366 23.7913C68.9865 23.8373 68.8132 23.8028 68.663 23.8028C68.5128 23.6763 68.3511 23.5613 68.2009 23.4348Z" fill="white"/>
<path d="M48.8843 28.5753C49.023 26.2638 48.7804 23.8488 49.3811 21.6639C50.2591 18.5129 50.3053 15.4424 49.9125 12.2685C49.8317 11.6475 50.0281 10.5665 50.3977 10.4055C50.9869 10.1525 51.9343 10.3135 52.5581 10.6355C54.9726 11.9005 55.8968 14.3499 54.834 16.8799C53.8058 19.3294 52.5812 21.6984 51.4375 24.0903C50.7212 25.5853 50.005 27.0803 49.2887 28.5753C49.1616 28.5868 49.023 28.5868 48.8843 28.5753Z" fill="white"/>
</svg>
